<svg width="33" height="24" viewBox="0 0 33 24" fill="none" xmlns="http://www.w3.org/2000/svg">
<path d="M15 24H8.25C5.975 24 4.0315 23.2125 2.4195 21.6375C0.8065 20.0625 0 18.1375 0 15.8625C0 13.9125 0.5875 12.175 1.7625 10.65C2.9375 9.125 4.475 8.15 6.375 7.725C7 5.425 8.25 3.5625 10.125 2.1375C12 0.7125 14.125 0 16.5 0C19.425 0 21.906 1.0185 23.943 3.0555C25.981 5.0935 27 7.575 27 10.5C28.725 10.7 30.1565 11.4435 31.2945 12.7305C32.4315 14.0185 33 15.525 33 17.25C33 19.125 32.344 20.719 31.032 22.032C29.719 23.344 28.125 24 26.25 24H18V13.275L20.4 15.6L22.5 13.5L16.5 7.5L10.5 13.5L12.6 15.6L15 13.275V24Z" fill="white"/>
</svg>
