<svg width="200" height="200" viewBox="0 0 200 200" fill="none" xmlns="http://www.w3.org/2000/svg">
<rect width="200" height="200" fill="#010127"/>
<g filter="url(#filter0_d_145_448)">
<path d="M168.082 161.427C166.776 161.426 165.485 161.151 164.292 160.619C164.014 160.496 163.749 160.345 163.502 160.17L139.387 143.194C138.164 142.333 137.166 141.19 136.477 139.863C135.788 138.535 135.428 137.061 135.427 135.565V112.413C135.428 110.917 135.788 109.444 136.477 108.116C137.166 106.788 138.164 105.646 139.387 104.785L163.502 87.8085C163.749 87.6331 164.014 87.4827 164.292 87.3595C165.712 86.7279 167.268 86.4613 168.818 86.5839C170.367 86.7065 171.862 87.2144 173.165 88.0615C174.469 88.9086 175.54 90.068 176.282 91.4344C177.023 92.8009 177.412 94.3309 177.412 95.8857V152.093C177.412 154.568 176.429 156.941 174.679 158.691C172.929 160.441 170.556 161.424 168.082 161.424L168.082 161.427Z" fill="#0064D2"/>
</g>
<g filter="url(#filter1_d_145_448)">
<path d="M114.113 165.979H46.8559C33.1342 165.967 22.0141 157.096 22 146.15V101.828C22.0141 90.8821 33.1342 82.0113 46.8559 82H114.289C127.913 82.0129 138.953 90.8201 138.969 101.688V146.15C138.955 157.096 127.835 165.967 114.113 165.979Z" fill="#1182FF"/>
</g>
<path d="M31.708 43.336C31.708 44.3253 31.4747 45.2587 31.008 46.136C30.5413 47.0133 29.7947 47.732 28.768 48.292C27.7413 48.8333 26.4253 49.104 24.82 49.104H21.292V57H18.1V37.54H24.82C26.3133 37.54 27.5733 37.8013 28.6 38.324C29.6453 38.828 30.42 39.5187 30.924 40.396C31.4467 41.2733 31.708 42.2533 31.708 43.336ZM24.82 46.5C26.0333 46.5 26.9387 46.2293 27.536 45.688C28.1333 45.128 28.432 44.344 28.432 43.336C28.432 41.208 27.228 40.144 24.82 40.144H21.292V46.5H24.82ZM48.8923 48.908C48.8923 49.4867 48.855 50.0093 48.7803 50.476H36.9923C37.0857 51.708 37.543 52.6973 38.3643 53.444C39.1857 54.1907 40.1937 54.564 41.3883 54.564C43.1057 54.564 44.319 53.8453 45.0283 52.408H48.4723C48.0057 53.8267 47.1563 54.9933 45.9243 55.908C44.711 56.804 43.199 57.252 41.3883 57.252C39.9137 57.252 38.5883 56.9253 37.4123 56.272C36.255 55.6 35.3403 54.6667 34.6683 53.472C34.015 52.2587 33.6883 50.8587 33.6883 49.272C33.6883 47.6853 34.0057 46.2947 34.6403 45.1C35.2937 43.8867 36.199 42.9533 37.3563 42.3C38.5323 41.6467 39.8763 41.32 41.3883 41.32C42.8443 41.32 44.1417 41.6373 45.2803 42.272C46.419 42.9067 47.3057 43.8027 47.9403 44.96C48.575 46.0987 48.8923 47.4147 48.8923 48.908ZM45.5603 47.9C45.5417 46.724 45.1217 45.7813 44.3003 45.072C43.479 44.3627 42.4617 44.008 41.2483 44.008C40.147 44.008 39.2043 44.3627 38.4203 45.072C37.6363 45.7627 37.1697 46.7053 37.0203 47.9H45.5603ZM66.1736 48.908C66.1736 49.4867 66.1363 50.0093 66.0616 50.476H54.2736C54.3669 51.708 54.8243 52.6973 55.6456 53.444C56.4669 54.1907 57.4749 54.564 58.6696 54.564C60.3869 54.564 61.6003 53.8453 62.3096 52.408H65.7536C65.2869 53.8267 64.4376 54.9933 63.2056 55.908C61.9923 56.804 60.4803 57.252 58.6696 57.252C57.1949 57.252 55.8696 56.9253 54.6936 56.272C53.5363 55.6 52.6216 54.6667 51.9496 53.472C51.2963 52.2587 50.9696 50.8587 50.9696 49.272C50.9696 47.6853 51.2869 46.2947 51.9216 45.1C52.5749 43.8867 53.4803 42.9533 54.6376 42.3C55.8136 41.6467 57.1576 41.32 58.6696 41.32C60.1256 41.32 61.4229 41.6373 62.5616 42.272C63.7003 42.9067 64.5869 43.8027 65.2216 44.96C65.8563 46.0987 66.1736 47.4147 66.1736 48.908ZM62.8416 47.9C62.8229 46.724 62.4029 45.7813 61.5816 45.072C60.7603 44.3627 59.7429 44.008 58.5296 44.008C57.4283 44.008 56.4856 44.3627 55.7016 45.072C54.9176 45.7627 54.4509 46.7053 54.3016 47.9H62.8416ZM72.5068 43.812C72.9735 43.028 73.5895 42.4213 74.3548 41.992C75.1388 41.544 76.0628 41.32 77.1268 41.32V44.624H76.3148C75.0642 44.624 74.1122 44.9413 73.4588 45.576C72.8242 46.2107 72.5068 47.312 72.5068 48.88V57H69.3148V41.572H72.5068V43.812Z" fill="white"/>
<path d="M86.4729 57.196C85.1663 57.196 83.9903 56.972 82.9449 56.524C81.8996 56.0573 81.0783 55.404 80.4809 54.564C79.8836 53.724 79.5849 52.744 79.5849 51.624H83.0009C83.0756 52.464 83.4023 53.1547 83.9809 53.696C84.5783 54.2373 85.4089 54.508 86.4729 54.508C87.5743 54.508 88.4329 54.2467 89.0489 53.724C89.6649 53.1827 89.9729 52.492 89.9729 51.652C89.9729 50.9987 89.7769 50.4667 89.3849 50.056C89.0116 49.6453 88.5356 49.328 87.9569 49.104C87.3969 48.88 86.6129 48.6373 85.6049 48.376C84.3356 48.04 83.2996 47.704 82.4969 47.368C81.7129 47.0133 81.0409 46.472 80.4809 45.744C79.9209 45.016 79.6409 44.0453 79.6409 42.832C79.6409 41.712 79.9209 40.732 80.4809 39.892C81.0409 39.052 81.8249 38.408 82.8329 37.96C83.8409 37.512 85.0076 37.288 86.3329 37.288C88.2183 37.288 89.7583 37.764 90.9529 38.716C92.1663 39.6493 92.8383 40.9373 92.9689 42.58H89.4409C89.3849 41.8707 89.0489 41.264 88.4329 40.76C87.8169 40.256 87.0049 40.004 85.9969 40.004C85.0823 40.004 84.3356 40.2373 83.7569 40.704C83.1783 41.1707 82.8889 41.8427 82.8889 42.72C82.8889 43.3173 83.0663 43.812 83.4209 44.204C83.7943 44.5773 84.2609 44.876 84.8209 45.1C85.3809 45.324 86.1463 45.5667 87.1169 45.828C88.4049 46.1827 89.4503 46.5373 90.2529 46.892C91.0743 47.2467 91.7649 47.7973 92.3249 48.544C92.9036 49.272 93.1929 50.252 93.1929 51.484C93.1929 52.4733 92.9223 53.4067 92.3809 54.284C91.8583 55.1613 91.0836 55.8707 90.0569 56.412C89.0489 56.9347 87.8543 57.196 86.4729 57.196ZM100.683 44.176V52.716C100.683 53.2947 100.814 53.7147 101.075 53.976C101.355 54.2187 101.822 54.34 102.475 54.34H104.435V57H101.915C100.478 57 99.3767 56.664 98.6114 55.992C97.846 55.32 97.4634 54.228 97.4634 52.716V44.176H95.6434V41.572H97.4634V37.736H100.683V41.572H104.435V44.176H100.683ZM110.569 43.812C111.036 43.028 111.652 42.4213 112.417 41.992C113.201 41.544 114.125 41.32 115.189 41.32V44.624H114.377C113.127 44.624 112.175 44.9413 111.521 45.576C110.887 46.2107 110.569 47.312 110.569 48.88V57H107.377V41.572H110.569V43.812ZM132.263 48.908C132.263 49.4867 132.226 50.0093 132.151 50.476H120.363C120.457 51.708 120.914 52.6973 121.735 53.444C122.557 54.1907 123.565 54.564 124.759 54.564C126.477 54.564 127.69 53.8453 128.399 52.408H131.843C131.377 53.8267 130.527 54.9933 129.295 55.908C128.082 56.804 126.57 57.252 124.759 57.252C123.285 57.252 121.959 56.9253 120.783 56.272C119.626 55.6 118.711 54.6667 118.039 53.472C117.386 52.2587 117.059 50.8587 117.059 49.272C117.059 47.6853 117.377 46.2947 118.011 45.1C118.665 43.8867 119.57 42.9533 120.727 42.3C121.903 41.6467 123.247 41.32 124.759 41.32C126.215 41.32 127.513 41.6373 128.651 42.272C129.79 42.9067 130.677 43.8027 131.311 44.96C131.946 46.0987 132.263 47.4147 132.263 48.908ZM128.931 47.9C128.913 46.724 128.493 45.7813 127.671 45.072C126.85 44.3627 125.833 44.008 124.619 44.008C123.518 44.008 122.575 44.3627 121.791 45.072C121.007 45.7627 120.541 46.7053 120.391 47.9H128.931ZM134.341 49.216C134.341 47.6667 134.658 46.2947 135.293 45.1C135.946 43.9053 136.823 42.9813 137.925 42.328C139.045 41.656 140.277 41.32 141.621 41.32C142.834 41.32 143.889 41.5627 144.785 42.048C145.699 42.5147 146.427 43.1027 146.969 43.812V41.572H150.189V57H146.969V54.704C146.427 55.432 145.69 56.0387 144.757 56.524C143.823 57.0093 142.759 57.252 141.565 57.252C140.239 57.252 139.026 56.916 137.925 56.244C136.823 55.5533 135.946 54.6013 135.293 53.388C134.658 52.156 134.341 50.7653 134.341 49.216ZM146.969 49.272C146.969 48.208 146.745 47.284 146.297 46.5C145.867 45.716 145.298 45.1187 144.589 44.708C143.879 44.2973 143.114 44.092 142.293 44.092C141.471 44.092 140.706 44.2973 139.997 44.708C139.287 45.1 138.709 45.688 138.261 46.472C137.831 47.2373 137.617 48.152 137.617 49.216C137.617 50.28 137.831 51.2133 138.261 52.016C138.709 52.8187 139.287 53.4347 139.997 53.864C140.725 54.2747 141.49 54.48 142.293 54.48C143.114 54.48 143.879 54.2747 144.589 53.864C145.298 53.4533 145.867 52.856 146.297 52.072C146.745 51.2693 146.969 50.336 146.969 49.272ZM173.057 41.32C174.271 41.32 175.353 41.572 176.305 42.076C177.276 42.58 178.032 43.3267 178.573 44.316C179.133 45.3053 179.413 46.5 179.413 47.9V57H176.249V48.376C176.249 46.9947 175.904 45.94 175.213 45.212C174.523 44.4653 173.58 44.092 172.385 44.092C171.191 44.092 170.239 44.4653 169.529 45.212C168.839 45.94 168.493 46.9947 168.493 48.376V57H165.329V48.376C165.329 46.9947 164.984 45.94 164.293 45.212C163.603 44.4653 162.66 44.092 161.465 44.092C160.271 44.092 159.319 44.4653 158.609 45.212C157.919 45.94 157.573 46.9947 157.573 48.376V57H154.381V41.572H157.573V43.336C158.096 42.7013 158.759 42.2067 159.561 41.852C160.364 41.4973 161.223 41.32 162.137 41.32C163.369 41.32 164.471 41.5813 165.441 42.104C166.412 42.6267 167.159 43.3827 167.681 44.372C168.148 43.4387 168.876 42.7013 169.865 42.16C170.855 41.6 171.919 41.32 173.057 41.32Z" fill="#1182FF"/>
<defs>
<filter id="filter0_d_145_448" x="131.427" y="86.5548" width="49.9844" height="89.8719" filterUnits="userSpaceOnUse" color-interpolation-filters="sRGB">
<feFlood flood-opacity="0" result="BackgroundImageFix"/>
<feColorMatrix in="SourceAlpha" type="matrix" values="0 0 0 0 0 0 0 0 0 0 0 0 0 0 0 0 0 0 127 0" result="hardAlpha"/>
<feOffset dy="11"/>
<feGaussianBlur stdDeviation="2"/>
<feComposite in2="hardAlpha" operator="out"/>
<feColorMatrix type="matrix" values="0 0 0 0 0 0 0 0 0 0 0 0 0 0 0 0 0 0 0.4 0"/>
<feBlend mode="normal" in2="BackgroundImageFix" result="effect1_dropShadow_145_448"/>
<feBlend mode="normal" in="SourceGraphic" in2="effect1_dropShadow_145_448" result="shape"/>
</filter>
<filter id="filter1_d_145_448" x="21" y="78" width="124.969" height="91.9785" filterUnits="userSpaceOnUse" color-interpolation-filters="sRGB">
<feFlood flood-opacity="0" result="BackgroundImageFix"/>
<feColorMatrix in="SourceAlpha" type="matrix" values="0 0 0 0 0 0 0 0 0 0 0 0 0 0 0 0 0 0 127 0" result="hardAlpha"/>
<feOffset dx="3"/>
<feGaussianBlur stdDeviation="2"/>
<feComposite in2="hardAlpha" operator="out"/>
<feColorMatrix type="matrix" values="0 0 0 0 0 0 0 0 0 0 0 0 0 0 0 0 0 0 0.4 0"/>
<feBlend mode="normal" in2="BackgroundImageFix" result="effect1_dropShadow_145_448"/>
<feBlend mode="normal" in="SourceGraphic" in2="effect1_dropShadow_145_448" result="shape"/>
</filter>
</defs>
</svg>
