<svg width="225" height="25" viewBox="0 0 225 25" fill="none" xmlns="http://www.w3.org/2000/svg">
<path d="M104.89 14.5757V14.3398C104.89 13.54 105.006 12.7983 105.239 12.1147C105.471 11.4243 105.806 10.8262 106.244 10.3203C106.688 9.80762 107.228 9.41113 107.864 9.13086C108.506 8.84375 109.231 8.7002 110.038 8.7002C110.851 8.7002 111.576 8.84375 112.211 9.13086C112.854 9.41113 113.397 9.80762 113.842 10.3203C114.286 10.8262 114.625 11.4243 114.857 12.1147C115.089 12.7983 115.206 13.54 115.206 14.3398V14.5757C115.206 15.3755 115.089 16.1172 114.857 16.8008C114.625 17.4844 114.286 18.0825 113.842 18.5952C113.397 19.1011 112.857 19.4976 112.222 19.7847C111.586 20.0649 110.865 20.2051 110.058 20.2051C109.245 20.2051 108.517 20.0649 107.874 19.7847C107.238 19.4976 106.698 19.1011 106.254 18.5952C105.81 18.0825 105.471 17.4844 105.239 16.8008C105.006 16.1172 104.89 15.3755 104.89 14.5757ZM107.361 14.3398V14.5757C107.361 15.0747 107.413 15.5464 107.515 15.9907C107.618 16.4351 107.778 16.8247 107.997 17.1597C108.216 17.4946 108.496 17.7578 108.838 17.9492C109.18 18.1406 109.586 18.2363 110.058 18.2363C110.516 18.2363 110.913 18.1406 111.248 17.9492C111.589 17.7578 111.87 17.4946 112.088 17.1597C112.307 16.8247 112.468 16.4351 112.57 15.9907C112.68 15.5464 112.734 15.0747 112.734 14.5757V14.3398C112.734 13.8477 112.68 13.3828 112.57 12.9453C112.468 12.501 112.304 12.1079 112.078 11.7661C111.859 11.4243 111.579 11.1577 111.237 10.9663C110.902 10.7681 110.502 10.6689 110.038 10.6689C109.573 10.6689 109.169 10.7681 108.828 10.9663C108.493 11.1577 108.216 11.4243 107.997 11.7661C107.778 12.1079 107.618 12.501 107.515 12.9453C107.413 13.3828 107.361 13.8477 107.361 14.3398ZM119.758 11.0176V20H117.287V8.90527H119.646L119.758 11.0176ZM123.152 8.8335L123.132 11.1304C122.981 11.103 122.817 11.0825 122.64 11.0688C122.469 11.0552 122.298 11.0483 122.127 11.0483C121.703 11.0483 121.331 11.1099 121.009 11.2329C120.688 11.3491 120.418 11.52 120.199 11.7456C119.987 11.9644 119.823 12.231 119.707 12.5454C119.591 12.8599 119.522 13.2119 119.502 13.6016L118.938 13.6426C118.938 12.9453 119.006 12.2993 119.143 11.7046C119.28 11.1099 119.485 10.5869 119.758 10.1357C120.039 9.68457 120.387 9.33252 120.804 9.07959C121.228 8.82666 121.717 8.7002 122.271 8.7002C122.421 8.7002 122.582 8.71387 122.752 8.74121C122.93 8.76855 123.063 8.79932 123.152 8.8335Z" fill="white"/>
<line x1="126.641" y1="14.25" x2="224.641" y2="14.25" stroke="#8B8B8B" stroke-width="1.5"/>
<line x1="0.358887" y1="14.25" x2="98.3589" y2="14.25" stroke="#8B8B8B" stroke-width="1.5"/>
</svg>
