<svg width="29" height="28" viewBox="0 0 29 28" fill="none" xmlns="http://www.w3.org/2000/svg">
<path d="M13.3918 16.9167L18.2335 13.825C18.4085 13.7083 18.5399 13.5625 18.6278 13.3875C18.7149 13.2125 18.7585 13.0278 18.7585 12.8333C18.7585 12.6389 18.7149 12.4542 18.6278 12.2792C18.5399 12.1042 18.4085 11.9583 18.2335 11.8417L13.3918 8.75C13.0029 8.49722 12.6043 8.47778 12.196 8.69167C11.7877 8.90556 11.5835 9.24583 11.5835 9.7125V15.9542C11.5835 16.4208 11.7877 16.7611 12.196 16.975C12.6043 17.1889 13.0029 17.1694 13.3918 16.9167ZM11.0002 24.5C10.6696 24.5 10.3927 24.388 10.1695 24.164C9.9455 23.9408 9.8335 23.6639 9.8335 23.3333V22.1667H5.16683C4.52516 22.1667 3.97605 21.9384 3.5195 21.4818C3.06216 21.0245 2.8335 20.475 2.8335 19.8333V5.83333C2.8335 5.19167 3.06216 4.64217 3.5195 4.18483C3.97605 3.72828 4.52516 3.5 5.16683 3.5H23.8335C24.4752 3.5 25.0247 3.72828 25.482 4.18483C25.9386 4.64217 26.1668 5.19167 26.1668 5.83333V19.8333C26.1668 20.475 25.9386 21.0245 25.482 21.4818C25.0247 21.9384 24.4752 22.1667 23.8335 22.1667H19.1668V23.3333C19.1668 23.6639 19.0552 23.9408 18.832 24.164C18.608 24.388 18.3307 24.5 18.0002 24.5H11.0002ZM5.16683 19.8333H23.8335V5.83333H5.16683V19.8333Z" fill="white"/>
</svg>
