<svg width="558" height="336" viewBox="0 0 558 336" fill="none" xmlns="http://www.w3.org/2000/svg">
<g clip-path="url(#clip0_140_445)">
<path d="M558 262.201C558.012 264.451 557.129 266.614 555.546 268.214C553.964 269.813 551.81 270.719 549.56 270.73H178.231C177.117 270.725 176.015 270.499 174.988 270.068C173.961 269.636 173.029 269.006 172.245 268.214C171.462 267.422 170.842 266.483 170.421 265.452C170 264.42 169.786 263.316 169.792 262.201V8.5293C169.78 6.27896 170.662 4.11611 172.245 2.51656C173.828 0.917005 175.981 0.0117683 178.231 0H549.56C550.674 0.00579599 551.776 0.231007 552.803 0.662769C553.831 1.09453 554.763 1.72439 555.546 2.51639C556.33 3.30839 556.95 4.24702 557.371 5.27867C557.792 6.31033 558.006 7.41482 558 8.52907V262.201Z" fill="#374B80"/>
<path d="M553.62 258.047C553.62 260.234 552.751 262.332 551.204 263.879C549.658 265.425 547.56 266.294 545.373 266.294H182.672C180.485 266.294 178.388 265.425 176.842 263.879C175.295 262.332 174.426 260.234 174.426 258.047V12.7994C174.426 10.6121 175.295 8.51444 176.842 6.96779C178.388 5.42114 180.485 4.55225 182.672 4.55225H545.39C547.574 4.55664 549.667 5.42748 551.21 6.97365C552.753 8.51982 553.62 10.615 553.62 12.7994V258.047Z" fill="#162A5D"/>
<path d="M198.125 20.7092H529.937C531.235 20.7092 532.48 21.225 533.398 22.143C534.316 23.061 534.832 24.3062 534.832 25.6044V243.052C534.832 244.35 534.316 245.595 533.398 246.513C532.48 247.431 531.235 247.947 529.937 247.947H198.125C196.827 247.947 195.582 247.431 194.664 246.513C193.746 245.595 193.23 244.35 193.23 243.052V25.6044C193.23 24.3062 193.746 23.061 194.664 22.143C195.582 21.225 196.827 20.7092 198.125 20.7092Z" fill="#010127"/>
<path d="M432.407 171.766C431.101 171.765 429.81 171.489 428.617 170.958C428.34 170.835 428.075 170.684 427.827 170.509L403.712 153.532C402.489 152.671 401.491 151.529 400.802 150.201C400.113 148.874 399.753 147.4 399.753 145.904V122.752C399.753 121.256 400.113 119.782 400.802 118.455C401.491 117.127 402.489 115.985 403.712 115.124L427.827 98.1473C428.075 97.9719 428.34 97.8215 428.617 97.6982C430.038 97.0666 431.593 96.8 433.143 96.9226C434.693 97.0452 436.187 97.5531 437.491 98.4002C438.794 99.2473 439.866 100.407 440.607 101.773C441.349 103.14 441.737 104.67 441.737 106.224V162.432C441.737 164.906 440.754 167.28 439.005 169.03C437.255 170.78 434.882 171.763 432.407 171.763L432.407 171.766Z" fill="#3F3D56"/>
<path d="M378.438 176.317H311.181C297.459 176.306 286.339 167.435 286.325 156.489V112.167C286.339 101.221 297.459 92.3501 311.181 92.3389H378.614C392.238 92.3517 403.278 101.159 403.294 112.027V156.489C403.28 167.435 392.16 176.306 378.438 176.317Z" fill="#3F3D56"/>
<path d="M498.246 233.964C509.293 233.964 518.249 225.008 518.249 213.959C518.249 202.91 509.293 193.954 498.246 193.954C487.199 193.954 478.243 202.91 478.243 213.959C478.243 225.008 487.199 233.964 498.246 233.964Z" fill="#023F82"/>
<path d="M508.636 213.6L492.691 204.394C492.628 204.357 492.557 204.338 492.484 204.338C492.412 204.338 492.34 204.357 492.277 204.394C492.214 204.43 492.162 204.482 492.126 204.545C492.089 204.608 492.07 204.68 492.07 204.752V223.166C492.07 223.238 492.089 223.31 492.126 223.373C492.162 223.436 492.214 223.488 492.277 223.524C492.34 223.561 492.412 223.58 492.484 223.58C492.557 223.58 492.628 223.561 492.691 223.524L508.636 214.318C508.699 214.281 508.751 214.229 508.787 214.166C508.824 214.103 508.843 214.032 508.843 213.959C508.843 213.886 508.824 213.815 508.787 213.752C508.751 213.689 508.699 213.637 508.636 213.6L492.691 204.394C492.628 204.357 492.557 204.338 492.484 204.338C492.412 204.338 492.34 204.357 492.277 204.394C492.214 204.43 492.162 204.482 492.126 204.545C492.089 204.608 492.07 204.68 492.07 204.752V223.166C492.07 223.238 492.089 223.31 492.126 223.373C492.162 223.436 492.214 223.488 492.277 223.524C492.34 223.561 492.412 223.58 492.484 223.58C492.557 223.58 492.628 223.561 492.691 223.524L508.636 214.318C508.699 214.281 508.751 214.229 508.787 214.166C508.824 214.103 508.843 214.032 508.843 213.959C508.843 213.886 508.824 213.815 508.787 213.752C508.751 213.689 508.699 213.637 508.636 213.6Z" fill="#959595"/>
<path d="M472.274 292.623C472.286 294.874 471.404 297.037 469.821 298.636C468.238 300.236 466.085 301.141 463.835 301.153H92.5058C91.3917 301.147 90.2896 300.922 89.2625 300.49C88.2354 300.058 87.3034 299.428 86.5197 298.636C85.736 297.844 85.1159 296.906 84.6949 295.874C84.2739 294.842 84.0602 293.738 84.066 292.624V38.9515C84.0543 36.7012 84.9368 34.5384 86.5195 32.9388C88.1023 31.3392 90.2555 30.434 92.5056 30.4222H463.835C464.949 30.428 466.051 30.6532 467.078 31.085C468.105 31.5168 469.037 32.1466 469.821 32.9386C470.604 33.7306 471.224 34.6693 471.645 35.7009C472.066 36.7326 472.28 37.8371 472.274 38.9513V292.623Z" fill="#374B80"/>
<path d="M467.894 288.469C467.894 290.657 467.025 292.754 465.479 294.301C463.932 295.848 461.835 296.717 459.648 296.717H96.9469C94.7599 296.717 92.6624 295.848 91.116 294.301C89.5695 292.754 88.7007 290.657 88.7007 288.469V43.2217C88.7007 41.0344 89.5695 38.9367 91.116 37.39C92.6624 35.8434 94.7599 34.9745 96.9469 34.9745H459.664C461.849 34.9789 463.942 35.8497 465.485 37.3959C467.028 38.9421 467.894 41.0373 467.894 43.2217V288.469Z" fill="#172B60"/>
<path d="M112.4 51.1315H444.212C445.51 51.1315 446.755 51.6472 447.673 52.5652C448.591 53.4833 449.107 54.7284 449.107 56.0267V273.474C449.107 274.772 448.591 276.017 447.673 276.935C446.755 277.853 445.51 278.369 444.212 278.369H112.4C111.102 278.369 109.857 277.853 108.939 276.935C108.021 276.017 107.505 274.772 107.505 273.474V56.0267C107.505 54.7284 108.021 53.4833 108.939 52.5652C109.857 51.6472 111.102 51.1315 112.4 51.1315Z" fill="#010036"/>
<path d="M346.682 202.188C345.376 202.187 344.085 201.912 342.892 201.38C342.614 201.257 342.349 201.107 342.101 200.931L317.987 183.955C316.764 183.094 315.766 181.951 315.077 180.624C314.388 179.296 314.028 177.822 314.027 176.327V153.174C314.028 151.678 314.387 150.205 315.077 148.877C315.766 147.55 316.764 146.407 317.987 145.546L342.101 128.57C342.349 128.394 342.614 128.244 342.892 128.121C344.312 127.489 345.868 127.222 347.417 127.345C348.967 127.468 350.462 127.976 351.765 128.823C353.069 129.67 354.14 130.829 354.882 132.196C355.623 133.562 356.012 135.092 356.012 136.647V192.854C356.012 195.329 355.029 197.702 353.279 199.452C351.529 201.202 349.156 202.185 346.682 202.185L346.682 202.188Z" fill="#3F3D56"/>
<path d="M292.713 206.74H225.456C211.734 206.728 200.614 197.858 200.6 186.911V142.589C200.614 131.643 211.734 122.772 225.456 122.761H292.889C306.513 122.774 317.553 131.581 317.569 142.449V186.911C317.555 197.858 306.435 206.728 292.713 206.74Z" fill="#3F3D56"/>
<path d="M412.521 264.387C423.568 264.387 432.524 255.43 432.524 244.381C432.524 233.333 423.568 224.376 412.521 224.376C401.474 224.376 392.518 233.333 392.518 244.381C392.518 255.43 401.474 264.387 412.521 264.387Z" fill="#0356B3"/>
<path d="M422.91 244.023L406.966 234.816C406.903 234.78 406.831 234.76 406.759 234.76C406.686 234.76 406.615 234.78 406.552 234.816C406.489 234.852 406.437 234.905 406.4 234.968C406.364 235.03 406.345 235.102 406.345 235.175V253.588C406.345 253.661 406.364 253.732 406.4 253.795C406.437 253.858 406.489 253.91 406.552 253.946C406.615 253.983 406.686 254.002 406.759 254.002C406.831 254.002 406.903 253.983 406.966 253.946L422.91 244.74C422.973 244.703 423.025 244.651 423.062 244.588C423.098 244.525 423.117 244.454 423.117 244.381C423.117 244.309 423.098 244.237 423.062 244.174C423.025 244.111 422.973 244.059 422.91 244.023L406.966 234.816C406.903 234.78 406.831 234.76 406.759 234.76C406.686 234.76 406.615 234.78 406.552 234.816C406.489 234.852 406.437 234.905 406.4 234.968C406.364 235.03 406.345 235.102 406.345 235.175V253.588C406.345 253.661 406.364 253.732 406.4 253.795C406.437 253.858 406.489 253.91 406.552 253.946C406.615 253.983 406.686 254.002 406.759 254.002C406.831 254.002 406.903 253.983 406.966 253.946L422.91 244.74C422.973 244.703 423.025 244.651 423.062 244.588C423.098 244.525 423.117 244.454 423.117 244.381C423.117 244.309 423.098 244.237 423.062 244.174C423.025 244.111 422.973 244.059 422.91 244.023Z" fill="#D0D0D0"/>
<g filter="url(#filter0_d_140_445)">
<path d="M388.208 327.471C388.22 329.721 387.338 331.884 385.755 333.483C384.172 335.083 382.019 335.988 379.769 336H8.43991C7.32578 335.994 6.22371 335.769 5.19661 335.337C4.16951 334.905 3.23749 334.276 2.45379 333.484C1.67008 332.692 1.05002 331.753 0.629021 330.721C0.208019 329.69 -0.00568172 328.585 0.000116141 327.471V73.7988C-0.0116492 71.5485 0.870903 69.3856 2.45363 67.7861C4.03635 66.1865 6.18959 65.2813 8.43967 65.2695H379.769C380.883 65.2753 381.985 65.5005 383.012 65.9323C384.039 66.3641 384.971 66.9939 385.755 67.7859C386.538 68.5779 387.159 69.5165 387.58 70.5482C388.001 71.5799 388.214 72.6843 388.208 73.7986V327.471Z" fill="#374B80"/>
</g>
<g filter="url(#filter1_d_140_445)">
<path d="M383.828 323.317C383.828 325.504 382.959 327.602 381.413 329.148C379.866 330.695 377.769 331.564 375.582 331.564H12.881C10.694 331.564 8.5965 330.695 7.05003 329.148C5.50356 327.602 4.63477 325.504 4.63477 323.317V78.0691C4.63477 75.8818 5.50356 73.7841 7.05003 72.2374C8.5965 70.6908 10.694 69.8219 12.881 69.8219H375.598C377.783 69.8263 379.876 70.6971 381.419 72.2433C382.962 73.7895 383.828 75.8847 383.828 78.0691V323.317Z" fill="#172B60"/>
</g>
<path d="M28.3336 85.9789H360.146C360.789 85.9789 361.425 86.1055 362.019 86.3515C362.613 86.5975 363.152 86.9581 363.607 87.4127C364.061 87.8672 364.422 88.4069 364.668 89.0008C364.914 89.5947 365.04 90.2312 365.04 90.8741V308.321C365.04 308.964 364.914 309.601 364.668 310.195C364.422 310.789 364.061 311.328 363.607 311.783C363.152 312.237 362.613 312.598 362.019 312.844C361.425 313.09 360.789 313.217 360.146 313.217H28.3336C27.0355 313.217 25.7905 312.701 24.8726 311.783C23.9546 310.865 23.439 309.62 23.439 308.321V90.8741C23.439 89.5758 23.9546 88.3307 24.8726 87.4127C25.7905 86.4946 27.0355 85.9789 28.3336 85.9789Z" fill="#010044"/>
<g filter="url(#filter2_d_140_445)">
<path d="M262.616 237.035C261.31 237.034 260.019 236.759 258.826 236.227C258.548 236.104 258.283 235.954 258.036 235.778L233.921 218.802C232.698 217.941 231.7 216.799 231.011 215.471C230.322 214.143 229.962 212.67 229.961 211.174V188.021C229.962 186.526 230.322 185.052 231.011 183.724C231.7 182.397 232.698 181.254 233.921 180.393L258.036 163.417C258.283 163.242 258.548 163.091 258.826 162.968C260.246 162.336 261.802 162.07 263.352 162.192C264.901 162.315 266.396 162.823 267.699 163.67C269.003 164.517 270.074 165.676 270.816 167.043C271.557 168.409 271.946 169.939 271.946 171.494V227.701C271.946 230.176 270.963 232.549 269.213 234.299C267.463 236.049 265.09 237.032 262.616 237.032L262.616 237.035Z" fill="#0064D2"/>
</g>
<g filter="url(#filter3_d_140_445)">
<path d="M208.647 241.587H141.39C127.668 241.576 116.548 232.705 116.534 221.759V177.437C116.548 166.49 127.668 157.62 141.39 157.608H208.823C222.447 157.621 233.487 166.428 233.503 177.297V221.759C233.489 232.705 222.369 241.576 208.647 241.587Z" fill="#1182FF"/>
</g>
<path d="M325.003 294.011C336.05 294.011 345.006 285.054 345.006 274.005C345.006 262.957 336.05 254 325.003 254C313.956 254 305 262.957 305 274.005C305 285.054 313.956 294.011 325.003 294.011Z" fill="#1182FF"/>
<path d="M335.393 273.647L319.448 264.44C319.385 264.404 319.314 264.385 319.241 264.385C319.168 264.385 319.097 264.404 319.034 264.44C318.971 264.476 318.919 264.529 318.883 264.592C318.846 264.655 318.827 264.726 318.827 264.799V283.212C318.827 283.285 318.846 283.356 318.883 283.419C318.919 283.482 318.971 283.534 319.034 283.571C319.097 283.607 319.168 283.626 319.241 283.626C319.314 283.626 319.385 283.607 319.448 283.571L335.393 274.364C335.456 274.328 335.508 274.275 335.544 274.212C335.581 274.149 335.6 274.078 335.6 274.005C335.6 273.933 335.581 273.861 335.544 273.798C335.508 273.735 335.456 273.683 335.393 273.647L319.448 264.44C319.385 264.404 319.314 264.385 319.241 264.385C319.168 264.385 319.097 264.404 319.034 264.44C318.971 264.476 318.919 264.529 318.883 264.592C318.846 264.655 318.827 264.726 318.827 264.799V283.212C318.827 283.285 318.846 283.356 318.883 283.419C318.919 283.482 318.971 283.534 319.034 283.571C319.097 283.607 319.168 283.626 319.241 283.626C319.314 283.626 319.385 283.607 319.448 283.571L335.393 274.364C335.456 274.328 335.508 274.275 335.544 274.212C335.581 274.149 335.6 274.078 335.6 274.005C335.6 273.933 335.581 273.861 335.544 273.798C335.508 273.735 335.456 273.683 335.393 273.647Z" fill="white"/>
</g>
<defs>
<filter id="filter0_d_140_445" x="-4" y="65.2695" width="396.208" height="278.73" filterUnits="userSpaceOnUse" color-interpolation-filters="sRGB">
<feFlood flood-opacity="0" result="BackgroundImageFix"/>
<feColorMatrix in="SourceAlpha" type="matrix" values="0 0 0 0 0 0 0 0 0 0 0 0 0 0 0 0 0 0 127 0" result="hardAlpha"/>
<feOffset dy="4"/>
<feGaussianBlur stdDeviation="2"/>
<feComposite in2="hardAlpha" operator="out"/>
<feColorMatrix type="matrix" values="0 0 0 0 0 0 0 0 0 0 0 0 0 0 0 0 0 0 0.25 0"/>
<feBlend mode="normal" in2="BackgroundImageFix" result="effect1_dropShadow_140_445"/>
<feBlend mode="normal" in="SourceGraphic" in2="effect1_dropShadow_140_445" result="shape"/>
</filter>
<filter id="filter1_d_140_445" x="0.634766" y="69.8219" width="387.193" height="269.742" filterUnits="userSpaceOnUse" color-interpolation-filters="sRGB">
<feFlood flood-opacity="0" result="BackgroundImageFix"/>
<feColorMatrix in="SourceAlpha" type="matrix" values="0 0 0 0 0 0 0 0 0 0 0 0 0 0 0 0 0 0 127 0" result="hardAlpha"/>
<feOffset dy="4"/>
<feGaussianBlur stdDeviation="2"/>
<feComposite in2="hardAlpha" operator="out"/>
<feColorMatrix type="matrix" values="0 0 0 0 0 0 0 0 0 0 0 0 0 0 0 0 0 0 0.25 0"/>
<feBlend mode="normal" in2="BackgroundImageFix" result="effect1_dropShadow_140_445"/>
<feBlend mode="normal" in="SourceGraphic" in2="effect1_dropShadow_140_445" result="shape"/>
</filter>
<filter id="filter2_d_140_445" x="225.961" y="162.163" width="49.9844" height="89.8719" filterUnits="userSpaceOnUse" color-interpolation-filters="sRGB">
<feFlood flood-opacity="0" result="BackgroundImageFix"/>
<feColorMatrix in="SourceAlpha" type="matrix" values="0 0 0 0 0 0 0 0 0 0 0 0 0 0 0 0 0 0 127 0" result="hardAlpha"/>
<feOffset dy="11"/>
<feGaussianBlur stdDeviation="2"/>
<feComposite in2="hardAlpha" operator="out"/>
<feColorMatrix type="matrix" values="0 0 0 0 0 0 0 0 0 0 0 0 0 0 0 0 0 0 0.4 0"/>
<feBlend mode="normal" in2="BackgroundImageFix" result="effect1_dropShadow_140_445"/>
<feBlend mode="normal" in="SourceGraphic" in2="effect1_dropShadow_140_445" result="shape"/>
</filter>
<filter id="filter3_d_140_445" x="112.534" y="157.608" width="124.969" height="98.9785" filterUnits="userSpaceOnUse" color-interpolation-filters="sRGB">
<feFlood flood-opacity="0" result="BackgroundImageFix"/>
<feColorMatrix in="SourceAlpha" type="matrix" values="0 0 0 0 0 0 0 0 0 0 0 0 0 0 0 0 0 0 127 0" result="hardAlpha"/>
<feOffset dy="11"/>
<feGaussianBlur stdDeviation="2"/>
<feComposite in2="hardAlpha" operator="out"/>
<feColorMatrix type="matrix" values="0 0 0 0 0 0 0 0 0 0 0 0 0 0 0 0 0 0 0.4 0"/>
<feBlend mode="normal" in2="BackgroundImageFix" result="effect1_dropShadow_140_445"/>
<feBlend mode="normal" in="SourceGraphic" in2="effect1_dropShadow_140_445" result="shape"/>
</filter>
<clipPath id="clip0_140_445">
<rect width="558" height="336" fill="white"/>
</clipPath>
</defs>
</svg>
