<svg width="558" height="336" viewBox="0 0 558 336" fill="none" xmlns="http://www.w3.org/2000/svg">
<g clip-path="url(#clip0_1_828)">
<path d="M558 262.201C558.012 264.451 557.129 266.614 555.546 268.214C553.964 269.813 551.81 270.719 549.56 270.73H178.231C177.117 270.725 176.015 270.499 174.988 270.068C173.961 269.636 173.029 269.006 172.245 268.214C171.461 267.422 170.841 266.483 170.42 265.452C169.999 264.42 169.786 263.316 169.791 262.201V8.5293C169.78 6.27896 170.662 4.11611 172.245 2.51656C173.828 0.917005 175.981 0.0117683 178.231 0H549.56C550.674 0.00579599 551.776 0.231007 552.803 0.662769C553.83 1.09453 554.762 1.72439 555.546 2.51639C556.33 3.30839 556.95 4.24702 557.371 5.27867C557.792 6.31033 558.006 7.41482 558 8.52907V262.201Z" fill="#E6E6E6"/>
<path d="M553.62 258.047C553.62 260.234 552.751 262.332 551.204 263.879C549.658 265.425 547.56 266.294 545.373 266.294H182.672C180.485 266.294 178.388 265.425 176.842 263.879C175.295 262.332 174.426 260.234 174.426 258.047V12.7995C174.426 10.6122 175.295 8.51447 176.842 6.96782C178.388 5.42117 180.485 4.55228 182.672 4.55228H545.39C547.574 4.55667 549.667 5.42751 551.21 6.97368C552.753 8.51985 553.62 10.615 553.62 12.7995V258.047Z" fill="white"/>
<path d="M193.811 15.2001H534.622C535.92 15.2001 537.165 15.7158 538.083 16.6338C539.001 17.5519 539.516 18.797 539.516 20.0953V249.8C539.516 251.098 539.001 252.343 538.083 253.261C537.165 254.179 535.92 254.695 534.622 254.695H193.811C192.513 254.695 191.268 254.179 190.35 253.261C189.432 252.343 188.917 251.098 188.917 249.8V20.0953C188.917 18.797 189.432 17.5519 190.35 16.6338C191.268 15.7158 192.513 15.2001 193.811 15.2001Z" fill="#E6E6E6"/>
<path d="M198.125 20.7093H529.937C531.235 20.7093 532.48 21.225 533.398 22.143C534.316 23.0611 534.832 24.3062 534.832 25.6045V243.052C534.832 244.35 534.316 245.595 533.398 246.513C532.48 247.431 531.235 247.947 529.937 247.947H198.125C196.827 247.947 195.582 247.431 194.664 246.513C193.746 245.595 193.23 244.35 193.23 243.052V25.6045C193.23 24.3062 193.746 23.0611 194.664 22.143C195.582 21.225 196.827 20.7093 198.125 20.7093Z" fill="white"/>
<path d="M432.407 171.766C431.101 171.765 429.81 171.49 428.617 170.958C428.339 170.835 428.075 170.684 427.827 170.509L403.712 153.532C402.489 152.671 401.491 151.529 400.802 150.201C400.113 148.874 399.753 147.4 399.753 145.904V122.752C399.753 121.256 400.113 119.782 400.802 118.455C401.491 117.127 402.489 115.985 403.712 115.124L427.827 98.1474C428.075 97.9719 428.339 97.8215 428.617 97.6983C430.037 97.0667 431.593 96.8001 433.143 96.9227C434.693 97.0453 436.187 97.5532 437.491 98.4003C438.794 99.2474 439.865 100.407 440.607 101.773C441.349 103.14 441.737 104.67 441.737 106.224V162.432C441.737 164.906 440.754 167.28 439.004 169.03C437.255 170.78 434.882 171.763 432.407 171.763L432.407 171.766Z" fill="#3F3D56"/>
<path d="M378.439 176.317H311.181C297.46 176.306 286.34 167.435 286.325 156.489V112.167C286.34 101.221 297.46 92.3501 311.181 92.3388H378.614C392.238 92.3517 403.278 101.159 403.294 112.027V156.489C403.28 167.435 392.16 176.306 378.439 176.317Z" fill="#3F3D56"/>
<path d="M498.246 233.964C509.293 233.964 518.249 225.008 518.249 213.959C518.249 202.91 509.293 193.954 498.246 193.954C487.199 193.954 478.243 202.91 478.243 213.959C478.243 225.008 487.199 233.964 498.246 233.964Z" fill="#E0E1F3"/>
<path d="M508.636 213.6L492.691 204.394C492.628 204.357 492.557 204.338 492.484 204.338C492.411 204.338 492.34 204.357 492.277 204.394C492.214 204.43 492.162 204.482 492.126 204.545C492.089 204.608 492.07 204.68 492.07 204.752V223.166C492.07 223.238 492.089 223.31 492.126 223.373C492.162 223.436 492.214 223.488 492.277 223.524C492.34 223.561 492.411 223.58 492.484 223.58C492.557 223.58 492.628 223.561 492.691 223.524L508.636 214.318C508.699 214.281 508.751 214.229 508.787 214.166C508.823 214.103 508.843 214.032 508.843 213.959C508.843 213.886 508.823 213.815 508.787 213.752C508.751 213.689 508.699 213.637 508.636 213.6L492.691 204.394C492.628 204.357 492.557 204.338 492.484 204.338C492.411 204.338 492.34 204.357 492.277 204.394C492.214 204.43 492.162 204.482 492.126 204.545C492.089 204.608 492.07 204.68 492.07 204.752V223.166C492.07 223.238 492.089 223.31 492.126 223.373C492.162 223.436 492.214 223.488 492.277 223.524C492.34 223.561 492.411 223.58 492.484 223.58C492.557 223.58 492.628 223.561 492.691 223.524L508.636 214.318C508.699 214.281 508.751 214.229 508.787 214.166C508.823 214.103 508.843 214.032 508.843 213.959C508.843 213.886 508.823 213.815 508.787 213.752C508.751 213.689 508.699 213.637 508.636 213.6Z" fill="white"/>
<path d="M472.275 292.623C472.286 294.874 471.404 297.037 469.821 298.636C468.238 300.236 466.085 301.141 463.835 301.153H92.5061C91.3919 301.147 90.2899 300.922 89.2628 300.49C88.2357 300.058 87.3037 299.428 86.52 298.636C85.7362 297.844 85.1162 296.906 84.6952 295.874C84.2742 294.842 84.0605 293.738 84.0663 292.624V38.9516C84.0545 36.7012 84.9371 34.5384 86.5198 32.9388C88.1025 31.3393 90.2558 30.434 92.5058 30.4223H463.835C464.949 30.4281 466.051 30.6533 467.078 31.085C468.105 31.5168 469.037 32.1467 469.821 32.9387C470.605 33.7307 471.225 34.6693 471.646 35.7009C472.067 36.7326 472.28 37.8371 472.275 38.9513V292.623Z" fill="#E6E6E6"/>
<path d="M467.894 288.469C467.894 290.657 467.026 292.754 465.479 294.301C463.933 295.848 461.835 296.717 459.648 296.717H96.9471C94.7601 296.717 92.6627 295.848 91.1162 294.301C89.5697 292.754 88.7009 290.657 88.7009 288.469V43.2217C88.7009 41.0344 89.5697 38.9367 91.1162 37.3901C92.6627 35.8434 94.7601 34.9745 96.9471 34.9745H459.665C461.849 34.9789 463.942 35.8498 465.485 37.396C467.028 38.9421 467.894 41.0373 467.894 43.2217V288.469Z" fill="white"/>
<path d="M108.086 45.6223H448.896C450.195 45.6223 451.44 46.1381 452.358 47.0561C453.275 47.9741 453.791 49.2192 453.791 50.5175V280.222C453.791 281.52 453.275 282.766 452.358 283.684C451.44 284.602 450.195 285.117 448.896 285.117H108.086C106.788 285.117 105.543 284.602 104.625 283.684C103.707 282.766 103.191 281.52 103.191 280.222V50.5175C103.191 49.2192 103.707 47.9741 104.625 47.0561C105.543 46.1381 106.788 45.6223 108.086 45.6223Z" fill="#E6E6E6"/>
<path d="M112.4 51.1315H444.212C445.51 51.1315 446.755 51.6473 447.673 52.5653C448.591 53.4833 449.107 54.7285 449.107 56.0267V273.474C449.107 274.772 448.591 276.017 447.673 276.935C446.755 277.853 445.51 278.369 444.212 278.369H112.4C111.102 278.369 109.857 277.853 108.939 276.935C108.021 276.017 107.505 274.772 107.505 273.474V56.0267C107.505 54.7285 108.021 53.4833 108.939 52.5653C109.857 51.6473 111.102 51.1315 112.4 51.1315Z" fill="white"/>
<path d="M346.682 202.188C345.376 202.187 344.085 201.912 342.892 201.38C342.614 201.257 342.349 201.107 342.102 200.931L317.987 183.955C316.764 183.094 315.766 181.951 315.077 180.624C314.388 179.296 314.028 177.822 314.027 176.327V153.174C314.028 151.678 314.388 150.205 315.077 148.877C315.766 147.55 316.764 146.407 317.987 145.546L342.102 128.57C342.349 128.394 342.614 128.244 342.892 128.121C344.312 127.489 345.868 127.222 347.418 127.345C348.967 127.468 350.462 127.975 351.765 128.823C353.069 129.67 354.14 130.829 354.882 132.195C355.623 133.562 356.012 135.092 356.012 136.647V192.854C356.012 195.329 355.029 197.702 353.279 199.452C351.529 201.202 349.156 202.185 346.682 202.185L346.682 202.188Z" fill="#3F3D56"/>
<path d="M292.713 206.74H225.456C211.734 206.728 200.614 197.858 200.6 186.911V142.589C200.614 131.643 211.734 122.772 225.456 122.761H292.889C306.513 122.774 317.553 131.581 317.569 142.449V186.911C317.555 197.858 306.435 206.728 292.713 206.74Z" fill="#3F3D56"/>
<path d="M412.521 264.387C423.568 264.387 432.524 255.43 432.524 244.381C432.524 233.333 423.568 224.376 412.521 224.376C401.474 224.376 392.518 233.333 392.518 244.381C392.518 255.43 401.474 264.387 412.521 264.387Z" fill="#C2C4EF"/>
<path d="M422.91 244.023L406.966 234.816C406.903 234.78 406.832 234.761 406.759 234.761C406.686 234.761 406.615 234.78 406.552 234.816C406.489 234.852 406.437 234.905 406.4 234.968C406.364 235.031 406.345 235.102 406.345 235.175V253.588C406.345 253.661 406.364 253.732 406.4 253.795C406.437 253.858 406.489 253.91 406.552 253.946C406.615 253.983 406.686 254.002 406.759 254.002C406.832 254.002 406.903 253.983 406.966 253.946L422.91 244.74C422.973 244.704 423.026 244.651 423.062 244.588C423.098 244.525 423.117 244.454 423.117 244.381C423.117 244.309 423.098 244.237 423.062 244.174C423.026 244.111 422.973 244.059 422.91 244.023L406.966 234.816C406.903 234.78 406.832 234.761 406.759 234.761C406.686 234.761 406.615 234.78 406.552 234.816C406.489 234.852 406.437 234.905 406.4 234.968C406.364 235.031 406.345 235.102 406.345 235.175V253.588C406.345 253.661 406.364 253.732 406.4 253.795C406.437 253.858 406.489 253.91 406.552 253.946C406.615 253.983 406.686 254.002 406.759 254.002C406.832 254.002 406.903 253.983 406.966 253.946L422.91 244.74C422.973 244.704 423.026 244.651 423.062 244.588C423.098 244.525 423.117 244.454 423.117 244.381C423.117 244.309 423.098 244.237 423.062 244.174C423.026 244.111 422.973 244.059 422.91 244.023Z" fill="white"/>
<path d="M388.208 327.471C388.22 329.721 387.338 331.884 385.755 333.483C384.172 335.083 382.019 335.988 379.769 336H8.43991C7.32578 335.994 6.22371 335.769 5.19661 335.337C4.16951 334.905 3.23749 334.276 2.45379 333.484C1.67008 332.692 1.05002 331.753 0.629021 330.721C0.208019 329.69 -0.00568172 328.585 0.000116141 327.471V73.7989C-0.0116492 71.5485 0.870903 69.3857 2.45363 67.7861C4.03635 66.1866 6.18959 65.2813 8.43967 65.2696H379.769C380.883 65.2754 381.985 65.5006 383.012 65.9323C384.039 66.3641 384.971 66.994 385.755 67.786C386.538 68.5779 387.159 69.5166 387.58 70.5482C388.001 71.5799 388.214 72.6844 388.208 73.7986V327.471Z" fill="#E6E6E6"/>
<path d="M383.828 323.317C383.828 325.504 382.959 327.602 381.413 329.148C379.867 330.695 377.769 331.564 375.582 331.564H12.8811C10.6941 331.564 8.59662 330.695 7.05015 329.148C5.50369 327.602 4.63489 325.504 4.63489 323.317V78.069C4.63489 75.8817 5.50369 73.784 7.05015 72.2374C8.59662 70.6907 10.6941 69.8218 12.8811 69.8218H375.599C377.783 69.8262 379.876 70.6971 381.419 72.2432C382.962 73.7894 383.828 75.8846 383.828 78.069V323.317Z" fill="white"/>
<path d="M24.0198 80.4696H364.83C366.128 80.4696 367.373 80.9854 368.291 81.9034C369.209 82.8214 369.725 84.0666 369.725 85.3649V315.069C369.725 316.368 369.209 317.613 368.291 318.531C367.373 319.449 366.128 319.965 364.83 319.965H24.0198C22.7216 319.965 21.4767 319.449 20.5587 318.531C19.6408 317.613 19.1251 316.368 19.1251 315.069V85.3649C19.1251 84.0666 19.6408 82.8214 20.5587 81.9034C21.4767 80.9854 22.7216 80.4696 24.0198 80.4696Z" fill="#E6E6E6"/>
<path d="M28.3337 85.9788H360.146C360.789 85.9788 361.425 86.1054 362.019 86.3514C362.613 86.5975 363.152 86.958 363.607 87.4126C364.061 87.8672 364.422 88.4068 364.668 89.0007C364.914 89.5946 365.041 90.2312 365.041 90.874V308.321C365.041 308.964 364.914 309.601 364.668 310.195C364.422 310.789 364.061 311.328 363.607 311.783C363.152 312.237 362.613 312.598 362.019 312.844C361.425 313.09 360.789 313.216 360.146 313.216H28.3337C27.0356 313.216 25.7906 312.701 24.8727 311.783C23.9548 310.865 23.4391 309.62 23.4391 308.321V90.874C23.4391 89.5757 23.9548 88.3306 24.8727 87.4126C25.7906 86.4946 27.0356 85.9788 28.3337 85.9788Z" fill="white"/>
<path d="M262.616 237.035C261.31 237.034 260.018 236.759 258.826 236.227C258.548 236.104 258.283 235.954 258.035 235.778L233.921 218.802C232.698 217.941 231.7 216.799 231.011 215.471C230.322 214.143 229.962 212.67 229.961 211.174V188.021C229.962 186.526 230.321 185.052 231.011 183.724C231.7 182.397 232.698 181.254 233.921 180.393L258.035 163.417C258.283 163.242 258.548 163.091 258.825 162.968C260.246 162.336 261.802 162.07 263.351 162.192C264.901 162.315 266.396 162.823 267.699 163.67C269.003 164.517 270.074 165.676 270.816 167.043C271.557 168.409 271.946 169.939 271.946 171.494V227.701C271.946 230.176 270.963 232.549 269.213 234.299C267.463 236.049 265.09 237.032 262.616 237.032L262.616 237.035Z" fill="#1182FF"/>
<path d="M208.647 241.587H141.39C127.668 241.576 116.548 232.705 116.534 221.759V177.437C116.548 166.49 127.668 157.62 141.39 157.608H208.822C222.446 157.621 233.487 166.428 233.503 177.297V221.759C233.489 232.705 222.369 241.576 208.647 241.587Z" fill="#C2C4EF"/>
<path d="M328.455 299.234C339.502 299.234 348.458 290.277 348.458 279.229C348.458 268.18 339.502 259.223 328.455 259.223C317.408 259.223 308.452 268.18 308.452 279.229C308.452 290.277 317.408 299.234 328.455 299.234Z" fill="#1182FF"/>
<path d="M338.844 278.87L322.9 269.663C322.837 269.627 322.766 269.608 322.693 269.608C322.62 269.608 322.549 269.627 322.486 269.663C322.423 269.7 322.371 269.752 322.334 269.815C322.298 269.878 322.279 269.949 322.279 270.022V288.435C322.279 288.508 322.298 288.579 322.334 288.642C322.371 288.705 322.423 288.757 322.486 288.794C322.549 288.83 322.62 288.849 322.693 288.849C322.766 288.849 322.837 288.83 322.9 288.794L338.844 279.587C338.907 279.551 338.96 279.499 338.996 279.436C339.032 279.373 339.051 279.301 339.051 279.229C339.051 279.156 339.032 279.085 338.996 279.022C338.96 278.959 338.907 278.906 338.844 278.87L322.9 269.663C322.837 269.627 322.766 269.608 322.693 269.608C322.62 269.608 322.549 269.627 322.486 269.663C322.423 269.7 322.371 269.752 322.334 269.815C322.298 269.878 322.279 269.949 322.279 270.022V288.435C322.279 288.508 322.298 288.579 322.334 288.642C322.371 288.705 322.423 288.757 322.486 288.794C322.549 288.83 322.62 288.849 322.693 288.849C322.766 288.849 322.837 288.83 322.9 288.794L338.844 279.587C338.907 279.551 338.96 279.499 338.996 279.436C339.032 279.373 339.051 279.301 339.051 279.229C339.051 279.156 339.032 279.085 338.996 279.022C338.96 278.959 338.907 278.906 338.844 278.87Z" fill="white"/>
</g>
<defs>
<clipPath id="clip0_1_828">
<rect width="558" height="336" fill="white"/>
</clipPath>
</defs>
</svg>
