<svg width="70" height="12" viewBox="0 0 70 12" fill="none" xmlns="http://www.w3.org/2000/svg">
<path d="M2.968 0.327999C4.22667 0.327999 5.16 0.583999 5.768 1.096C6.38667 1.59733 6.696 2.31733 6.696 3.256V3.64C6.696 4.64267 6.39733 5.416 5.8 5.96C5.20267 6.504 4.30133 6.776 3.096 6.776C2.616 6.776 2.104 6.73333 1.56 6.648V11H0.2V0.407999C1.10667 0.354666 2.02933 0.327999 2.968 0.327999ZM2.936 1.48C2.46667 1.48 2.008 1.49067 1.56 1.512V5.48C2.2 5.56533 2.69067 5.608 3.032 5.608C4.568 5.608 5.336 4.93067 5.336 3.576V3.304C5.336 2.696 5.144 2.24267 4.76 1.944C4.376 1.63467 3.768 1.48 2.936 1.48ZM10.8363 3C11.7323 3 12.4149 3.24533 12.8843 3.736C13.3536 4.22667 13.5883 4.936 13.5883 5.864V7.512H9.47625V8.456C9.47625 9 9.60425 9.39467 9.86025 9.64C10.1269 9.87467 10.5429 9.992 11.1083 9.992C11.6629 9.992 12.3563 9.90667 13.1883 9.736L13.2203 10.92C12.2283 11.1013 11.5189 11.192 11.0923 11.192C10.0363 11.192 9.27358 10.9627 8.80425 10.504C8.34558 10.0453 8.11625 9.336 8.11625 8.376V5.864C8.11625 4.936 8.34025 4.22667 8.78825 3.736C9.24692 3.24533 9.92958 3 10.8363 3ZM10.8363 4.136C10.4203 4.136 10.0896 4.26933 9.84425 4.536C9.59892 4.792 9.47625 5.16533 9.47625 5.656V6.424H12.2283V5.704C12.2283 5.192 12.1003 4.80267 11.8443 4.536C11.5989 4.26933 11.2629 4.136 10.8363 4.136ZM17.9456 3C18.8416 3 19.5243 3.24533 19.9936 3.736C20.463 4.22667 20.6976 4.936 20.6976 5.864V7.512H16.5856V8.456C16.5856 9 16.7136 9.39467 16.9696 9.64C17.2363 9.87467 17.6523 9.992 18.2176 9.992C18.7723 9.992 19.4656 9.90667 20.2976 9.736L20.3296 10.92C19.3376 11.1013 18.6283 11.192 18.2016 11.192C17.1456 11.192 16.383 10.9627 15.9136 10.504C15.455 10.0453 15.2256 9.336 15.2256 8.376V5.864C15.2256 4.936 15.4496 4.22667 15.8976 3.736C16.3563 3.24533 17.039 3 17.9456 3ZM17.9456 4.136C17.5296 4.136 17.199 4.26933 16.9536 4.536C16.7083 4.792 16.5856 5.16533 16.5856 5.656V6.424H19.3376V5.704C19.3376 5.192 19.2096 4.80267 18.9536 4.536C18.7083 4.26933 18.3723 4.136 17.9456 4.136ZM25.9499 3C26.0992 3 26.2165 3.01067 26.3019 3.032V4.568C26.1419 4.536 25.9339 4.52 25.6779 4.52C24.9312 4.52 24.3392 4.89333 23.9019 5.64V11H22.5419V3.192H23.8219V4.36C24.1099 3.92267 24.4299 3.58667 24.7819 3.352C25.1445 3.11733 25.5339 3 25.9499 3Z" fill="white"/>
<path d="M30.449 0.327999C31.025 0.327999 31.777 0.413333 32.705 0.584L32.673 1.784C31.7983 1.61333 31.057 1.528 30.449 1.528C29.8303 1.528 29.3823 1.65067 29.105 1.896C28.8383 2.14133 28.705 2.51467 28.705 3.016V3.432C28.705 3.69867 28.737 3.912 28.801 4.072C28.8757 4.22133 29.0037 4.35467 29.185 4.472C29.3663 4.57867 29.6383 4.69067 30.001 4.808L31.489 5.304C32.2037 5.54933 32.705 5.87467 32.993 6.28C33.2917 6.68533 33.441 7.27733 33.441 8.056V8.36C33.441 9.30933 33.1637 10.0187 32.609 10.488C32.065 10.9573 31.169 11.192 29.921 11.192C29.313 11.192 28.5343 11.0853 27.585 10.872L27.617 9.64C28.5023 9.85333 29.2597 9.96 29.889 9.96C30.689 9.96 31.2543 9.84267 31.585 9.608C31.9157 9.36267 32.081 8.984 32.081 8.472V7.944C32.081 7.57067 31.9957 7.288 31.825 7.096C31.665 6.89333 31.377 6.72267 30.961 6.584L29.313 6.04C28.577 5.79467 28.065 5.48 27.777 5.096C27.489 4.70133 27.345 4.10933 27.345 3.32V3.144C27.345 2.216 27.5903 1.51733 28.081 1.048C28.5823 0.567999 29.3717 0.327999 30.449 0.327999ZM36.72 3.192H38.8V4.312H36.72V8.888C36.72 9.29333 36.8 9.58667 36.96 9.768C37.1307 9.93867 37.392 10.024 37.744 10.024C38.192 10.024 38.6293 9.97067 39.056 9.864L39.088 11C38.6187 11.128 38.192 11.192 37.808 11.192C36.9547 11.192 36.3307 11.0053 35.936 10.632C35.552 10.248 35.36 9.62933 35.36 8.776V4.312H34.24V3.192H35.36L35.616 1.112H36.72V3.192ZM43.9343 3C44.0836 3 44.2009 3.01067 44.2863 3.032V4.568C44.1263 4.536 43.9183 4.52 43.6623 4.52C42.9156 4.52 42.3236 4.89333 41.8863 5.64V11H40.5263V3.192H41.8063V4.36C42.0943 3.92267 42.4143 3.58667 42.7663 3.352C43.1289 3.11733 43.5183 3 43.9343 3ZM48.18 3C49.076 3 49.7587 3.24533 50.228 3.736C50.6973 4.22667 50.932 4.936 50.932 5.864V7.512H46.82V8.456C46.82 9 46.948 9.39467 47.204 9.64C47.4707 9.87467 47.8867 9.992 48.452 9.992C49.0067 9.992 49.7 9.90667 50.532 9.736L50.564 10.92C49.572 11.1013 48.8627 11.192 48.436 11.192C47.38 11.192 46.6173 10.9627 46.148 10.504C45.6893 10.0453 45.46 9.336 45.46 8.376V5.864C45.46 4.936 45.684 4.22667 46.132 3.736C46.5907 3.24533 47.2733 3 48.18 3ZM48.18 4.136C47.764 4.136 47.4333 4.26933 47.188 4.536C46.9427 4.792 46.82 5.16533 46.82 5.656V6.424H49.572V5.704C49.572 5.192 49.444 4.80267 49.188 4.536C48.9427 4.26933 48.6067 4.136 48.18 4.136ZM55.1603 3C56.0776 3 56.7443 3.208 57.1603 3.624C57.5869 4.02933 57.8003 4.68 57.8003 5.576V11H56.5043V9.752C55.8856 10.712 55.1869 11.192 54.4083 11.192C53.7896 11.192 53.2936 10.9787 52.9203 10.552C52.5576 10.1253 52.3763 9.544 52.3763 8.808V8.36C52.3763 7.72 52.5949 7.192 53.0323 6.776C53.4696 6.34933 54.0563 6.136 54.7923 6.136C55.1976 6.136 55.7469 6.20533 56.4403 6.344V5.464C56.4403 5.00533 56.3336 4.67467 56.1203 4.472C55.9176 4.26933 55.5976 4.168 55.1603 4.168C54.6483 4.168 53.9283 4.248 53.0003 4.408V3.24C54.0029 3.08 54.7229 3 55.1603 3ZM55.1283 7.192C54.6803 7.192 54.3389 7.30933 54.1043 7.544C53.8696 7.77867 53.7523 8.10933 53.7523 8.536V8.712C53.7523 9.10667 53.8429 9.416 54.0243 9.64C54.2056 9.864 54.4349 9.976 54.7123 9.976C55.0003 9.976 55.2936 9.85333 55.5923 9.608C55.9016 9.352 56.1843 8.99467 56.4403 8.536V7.304C56.0349 7.22933 55.5976 7.192 55.1283 7.192ZM67.4678 3C68.1504 3 68.6731 3.23467 69.0358 3.704C69.3984 4.16267 69.5798 4.81867 69.5798 5.672V11H68.2198V5.864C68.2198 4.79733 67.8784 4.264 67.1958 4.264C66.8971 4.264 66.5878 4.38133 66.2678 4.616C65.9584 4.85067 65.6864 5.17067 65.4518 5.576V11H64.0918V5.864C64.0918 4.79733 63.7504 4.264 63.0677 4.264C62.7691 4.264 62.4598 4.38133 62.1398 4.616C61.8304 4.85067 61.5584 5.17067 61.3238 5.576V11H59.9638V3.192H61.2438V4.36C61.5211 3.92267 61.8411 3.58667 62.2038 3.352C62.5664 3.11733 62.9451 3 63.3398 3C63.8304 3 64.2411 3.128 64.5718 3.384C64.9024 3.62933 65.1424 3.992 65.2918 4.472C65.5798 3.992 65.9104 3.62933 66.2838 3.384C66.6571 3.128 67.0518 3 67.4678 3Z" fill="#1182FF"/>
</svg>
